<svg width="52" height="46" viewBox="0 0 52 46" fill="none" xmlns="http://www.w3.org/2000/svg">
<g clip-path="url(#clip0_42036_80)">
<path d="M26.4692 44.3152C39.1104 44.3152 49.3582 34.3949 49.3582 22.1576C49.3582 9.92029 39.1104 0 26.4692 0C13.828 0 3.58032 9.92029 3.58032 22.1576C3.58032 34.3949 13.828 44.3152 26.4692 44.3152Z" fill="#29A867"/>
<path d="M48.1792 44.9531C47.1083 45.5961 45.74 45.5257 44.737 44.7903C42.8786 43.4265 40.7238 41.2016 38.5168 38.8231C37.4122 37.5318 36.0242 36.7802 34.1305 36.9911H17.8693C15.9769 36.7796 14.5876 37.5312 13.485 38.8231C13.4252 38.888 13.3655 38.9511 13.3058 39.0144C11.161 41.3207 9.07073 43.4627 7.2647 44.7903C6.77469 45.1507 6.18346 45.3592 5.56875 45.3883C4.95404 45.4173 4.34463 45.2656 3.82066 44.9531C1.16766 43.3693 0.386082 40.3935 0.684458 36.7338C0.68635 36.6994 0.690135 36.6652 0.69392 36.629C0.75553 35.8832 0.865502 35.1101 1.0129 34.3136C1.01261 34.3093 1.01326 34.305 1.0148 34.301C1.02594 34.2399 1.03898 34.1764 1.05012 34.1149C1.74991 30.4414 3.23295 26.3146 4.85814 22.3052C5.33945 21.1184 5.83191 19.9427 6.32079 18.7906C6.46252 18.4582 6.60256 18.124 6.74239 17.7973L8.15121 17.0152L8.1735 16.943L8.47776 15.8629C8.54232 15.6314 8.65819 15.4162 8.8173 15.2323C8.97642 15.0485 9.17497 14.9004 9.39917 14.7983C11.4178 13.8736 13.5018 13.1902 15.6621 12.7935C15.7183 12.7827 15.7723 12.7719 15.8282 12.7628C16.2441 12.6908 16.6728 12.7685 17.0335 12.9814L18.6213 13.9177C19.1257 14.2179 19.7063 14.3767 20.2984 14.3766H31.7033C32.2954 14.3762 32.8758 14.2175 33.3805 13.9177L34.9663 12.9814C35.3276 12.7682 35.757 12.6905 36.1735 12.7628C38.39 13.1567 40.5299 13.8502 42.6007 14.7983C42.8246 14.9008 43.0231 15.0489 43.1825 15.2325C43.3419 15.4161 43.4584 15.6309 43.5242 15.8621L43.8488 17.0144L45.2577 17.7965C45.407 18.1449 45.5581 18.4989 45.7072 18.8549C47.8678 23.9425 50.1046 29.5211 50.985 34.3046C51.8619 39.06 51.3974 43.0297 48.1792 44.9531Z" fill="#5E6C7A"/>
<path d="M5.4181 45.4467C4.84366 45.4463 4.2808 45.2903 3.79312 44.9965C1.33294 43.5272 0.298402 40.8236 0.632103 36.7298C0.633786 36.6976 0.63736 36.6638 0.641145 36.628C0.700862 35.9054 0.805368 35.1463 0.961179 34.304C0.961179 34.3051 0.959918 34.2989 0.963913 34.2871C0.96917 34.2576 0.975057 34.2277 0.980945 34.1976C0.986832 34.1674 0.99293 34.1365 0.998607 34.1056C1.77661 30.018 3.54605 25.4022 4.80915 22.286C5.22822 21.2526 5.69229 20.1355 6.27201 18.7707C6.33748 18.6175 6.40252 18.4641 6.46715 18.3106C6.54284 18.1317 6.61833 17.9532 6.69382 17.7771L6.70076 17.7611L8.10663 16.9804L8.12304 16.9277L8.42667 15.8489C8.4931 15.6102 8.61255 15.3884 8.77667 15.1991C8.94079 15.0097 9.14563 14.8573 9.37688 14.7525C11.4447 13.8052 13.5562 13.1294 15.6524 12.7439L15.6777 12.739C15.7252 12.7296 15.7717 12.7207 15.8196 12.7129C16.2477 12.6387 16.689 12.7188 17.0602 12.9381L18.648 13.8744C19.1441 14.1698 19.7153 14.3261 20.2978 14.3259H31.7027C32.2851 14.3256 32.8561 14.1694 33.3525 13.8746L34.9384 12.9383C35.3104 12.7182 35.753 12.638 36.1821 12.7129C38.3353 13.0954 40.5022 13.7816 42.6225 14.7525C42.8534 14.858 43.0581 15.0106 43.2223 15.1998C43.3866 15.389 43.5066 15.6103 43.5742 15.8487L43.8932 16.9808L45.2985 17.7611L45.3054 17.7771C45.4547 18.1258 45.6059 18.4798 45.7552 18.8356C47.9874 24.0926 50.1723 29.6036 51.0361 34.2949C52.0431 39.7556 51.1173 43.2557 48.2061 44.9957C47.1295 45.6422 45.7224 45.5758 44.7046 44.8304C42.8196 43.4472 40.5974 41.1418 38.477 38.8567C37.2686 37.4436 35.8486 36.8509 34.136 37.0418H17.8687C16.1478 36.8497 14.73 37.443 13.5249 38.8547C13.4671 38.9178 13.4103 38.9768 13.3538 39.0379L13.3441 39.0483C11.3021 41.2432 9.15589 43.4631 7.29604 44.8292C6.75639 45.2278 6.0969 45.4447 5.4181 45.4467ZM1.06547 34.3171V34.3226C0.910293 35.1616 0.806209 35.9174 0.747123 36.6331C0.742917 36.6726 0.739553 36.7045 0.737871 36.7365C0.407323 40.7894 1.42504 43.4627 3.84989 44.9098C4.90651 45.5432 6.23521 45.4797 7.23527 44.7502C9.08839 43.3882 11.2304 41.1723 13.2701 38.9809L13.28 38.9703C13.3361 38.9106 13.3924 38.851 13.4482 38.7897C14.6768 37.3508 16.1264 36.7463 17.878 36.9415H34.133C35.8783 36.7463 37.3292 37.3512 38.5597 38.7912C40.6754 41.071 42.8932 43.3723 44.7711 44.7504C45.7545 45.4704 47.1137 45.5347 48.1539 44.9102C51.0244 43.1946 51.9342 39.7285 50.9358 34.3138C50.0737 29.6321 47.8911 24.127 45.661 18.8751C45.5138 18.5246 45.3653 18.1763 45.2183 17.8329L43.8064 17.049L43.4737 15.8772C43.4101 15.653 43.2972 15.4447 43.1427 15.2667C42.9882 15.0888 42.7958 14.9452 42.5786 14.846C40.4662 13.8789 38.3082 13.1953 36.1642 12.8145C35.7605 12.7441 35.3441 12.8195 34.9939 13.0264L33.4082 13.9627C32.8953 14.2674 32.3053 14.4288 31.7035 14.4291H20.2984C19.6966 14.4292 19.1065 14.2678 18.5937 13.9627L17.0062 13.0264C16.6564 12.82 16.2407 12.7446 15.8375 12.8145C15.7902 12.8222 15.7448 12.8312 15.6983 12.8401L15.6724 12.845C13.5846 13.2291 11.4817 13.9023 9.42167 14.846C9.2042 14.9445 9.01157 15.0878 8.85725 15.2659C8.70293 15.444 8.59064 15.6525 8.52823 15.877L8.19537 17.05L6.78402 17.8335C6.71106 18.0043 6.63683 18.1771 6.5645 18.3507C6.49974 18.5038 6.43469 18.6572 6.36937 18.8108C5.7907 20.1746 5.326 21.2917 4.90693 22.3245C3.6453 25.437 1.87901 30.0465 1.10101 34.1251C1.09554 34.1554 1.08944 34.1862 1.08335 34.2179C1.07725 34.2497 1.07136 34.28 1.06568 34.3108L1.06547 34.3171Z" fill="#0F227A"/>
<g opacity="0.55">
<path d="M50.985 34.2784C50.1044 29.4959 47.8675 23.9175 45.7072 18.8287C45.5579 18.4729 45.4069 18.1189 45.2576 17.7702L43.8488 16.9882L43.5241 15.836C43.4584 15.6048 43.3419 15.39 43.1825 15.2064C43.0231 15.0228 42.8246 14.8747 42.6006 14.7723C40.5299 13.8239 38.3899 13.1304 36.1735 12.7367C35.757 12.6644 35.3276 12.7422 34.9663 12.9554L33.3804 13.8917C33.3546 13.907 33.3274 13.9204 33.3011 13.9351C33.2445 13.9022 33.1804 13.883 33.1145 13.8791C33.0485 13.8752 32.9826 13.8867 32.9222 13.9126C32.8618 13.9385 32.8087 13.9782 32.7674 14.0281C32.7262 14.0781 32.6979 14.1369 32.685 14.1997C32.3679 14.2992 32.0367 14.3502 31.7033 14.3509H20.2984C20.1487 14.3509 19.9991 14.3407 19.8509 14.3204C19.8604 14.2272 19.836 14.1338 19.782 14.0562C19.7279 13.9786 19.6476 13.9217 19.5548 13.8953C19.462 13.8689 19.3626 13.8747 19.2738 13.9117C19.185 13.9487 19.1123 14.0146 19.0683 14.0979L19.0622 14.1095C18.9094 14.0483 18.7617 13.9757 18.6206 13.8923L17.0331 12.956C16.6723 12.7431 16.2436 12.6653 15.8278 12.7374C15.7718 12.7463 15.7178 12.7577 15.6617 12.7681C13.5013 13.1654 11.4173 13.8481 9.39871 14.7729C9.17455 14.8748 8.976 15.0228 8.81685 15.2065C8.65769 15.3902 8.54176 15.6052 8.47709 15.8367L8.17283 16.9155L8.15054 16.9877L6.74172 17.7698C6.60189 18.0967 6.46185 18.4309 6.32012 18.7631C5.83124 19.9155 5.33879 21.0912 4.85747 22.2777C3.23228 26.2877 1.74924 30.4141 1.04945 34.0876C1.03831 34.1487 1.02527 34.2122 1.01413 34.2737C1.01258 34.2777 1.01193 34.282 1.01223 34.2863C0.865043 35.0828 0.75486 35.8557 0.69325 36.6017C0.689465 36.6378 0.685681 36.6722 0.683789 36.7064C0.629298 37.3489 0.61259 37.9939 0.633744 38.6383C0.643277 38.3503 0.659958 38.0576 0.683789 37.7602C0.685681 37.7258 0.689465 37.6916 0.69325 37.6553C0.75486 36.9095 0.864833 36.1364 1.01223 35.3399C1.01195 35.3356 1.01259 35.3313 1.01413 35.3273C1.02527 35.2662 1.03831 35.2027 1.04945 35.1412C1.74924 31.4677 3.23228 27.3409 4.85747 23.3315C5.33879 22.1448 5.83124 20.969 6.32012 19.8167C6.46185 19.4845 6.60189 19.1503 6.74172 18.8234L8.15054 18.0415L8.17283 17.9693L8.47709 16.8892C8.54179 16.6578 8.65773 16.4428 8.81688 16.2591C8.97603 16.0754 9.17457 15.9274 9.39871 15.8255C11.4173 14.9007 13.5013 14.2174 15.6617 13.8207C15.7178 13.8099 15.7718 13.7991 15.8278 13.7899C16.2436 13.7179 16.6723 13.7957 17.0331 14.0085L18.62 14.9449L17.708 16.671C17.6824 16.7181 17.6668 16.7696 17.6619 16.8226C17.657 16.8756 17.6631 16.929 17.6797 16.9797C17.6963 17.0305 17.7231 17.0775 17.7586 17.1181C17.7941 17.1587 17.8376 17.1921 17.8865 17.2163C17.9354 17.2406 17.9888 17.2552 18.0436 17.2593C18.0984 17.2634 18.1535 17.2569 18.2057 17.2403C18.2579 17.2237 18.3062 17.1972 18.3477 17.1623C18.3893 17.1275 18.4233 17.085 18.4478 17.0374L19.3801 15.273C19.6778 15.3597 19.987 15.4038 20.2979 15.4041H31.7029C32.1724 15.4034 32.636 15.3029 33.061 15.1098L34.0796 17.0374C34.1044 17.0844 34.1386 17.1263 34.1802 17.1605C34.2217 17.1948 34.2698 17.2208 34.3217 17.237C34.3737 17.2533 34.4284 17.2594 34.4828 17.2552C34.5372 17.251 34.5902 17.2364 34.6388 17.2124C34.6874 17.1883 34.7306 17.1552 34.766 17.115C34.8013 17.0748 34.8282 17.0282 34.845 16.9779C34.8618 16.9277 34.8681 16.8747 34.8638 16.822C34.8594 16.7694 34.8444 16.7181 34.8195 16.671L33.782 14.7077L34.9659 14.0079C35.3272 13.7947 35.7566 13.717 36.173 13.7893C38.3895 14.1832 40.5294 14.8767 42.6002 15.8248C42.8242 15.9273 43.0227 16.0754 43.1821 16.259C43.3414 16.4426 43.458 16.6574 43.5237 16.8886L43.8484 18.0409L45.2572 18.8228C45.4065 19.1715 45.5575 19.5254 45.7068 19.8813C47.8673 24.9689 50.1042 30.5475 50.9846 35.331C51.1967 36.4814 51.3294 37.5853 51.3645 38.6259C51.4125 37.291 51.2703 35.8266 50.985 34.2784Z" fill="white"/>
</g>
<g opacity="0.3">
<path d="M31.074 14.3784C31.0965 14.4759 31.1095 14.5337 31.1095 14.5337L33.1506 17.7989L33.8025 17.4974C35.004 15.1928 37.3008 15.5053 37.3008 15.5053L36.3808 12.9389L36.3177 12.7943C36.2618 12.7836 36.2075 12.7728 36.1516 12.7636C35.7358 12.6916 35.3071 12.7694 34.9463 12.9822L33.3588 13.9186C32.8543 14.2187 32.2736 14.3776 31.6814 14.3774L31.074 14.3784Z" fill="#0F227A"/>
</g>
<g opacity="0.3">
<path d="M20.9048 14.3784C20.8823 14.4759 20.8693 14.5337 20.8693 14.5337L18.8281 17.7989L18.1763 17.4974C16.9748 15.1928 14.6782 15.5053 14.6782 15.5053L15.598 12.9389L15.661 12.7943C15.7172 12.7836 15.7712 12.7728 15.8271 12.7636C16.243 12.6916 16.6717 12.7694 17.0324 12.9822L18.6202 13.9186C19.1246 14.2187 19.7052 14.3776 20.2973 14.3774L20.9048 14.3784Z" fill="#0F227A"/>
</g>
<path d="M50.985 34.3046C50.1044 29.5222 47.8675 23.9438 45.7072 18.8549C45.5579 18.4991 45.4069 18.1452 45.2576 17.7965L43.8488 17.0144V17.0134L38.1826 15.6223C37.4726 15.4481 36.7274 15.4612 36.0244 15.6603C35.3214 15.8593 34.6863 16.237 34.1851 16.7541L31.8797 19.134C31.5848 19.4384 31.2285 19.681 30.8328 19.8468C30.4372 20.0127 30.0107 20.0982 29.5796 20.0983H22.4206C21.9895 20.0982 21.563 20.0127 21.1674 19.8468C20.7718 19.681 20.4155 19.4384 20.1205 19.134L17.8153 16.7551C17.3141 16.238 16.679 15.8603 15.976 15.6613C15.273 15.4623 14.5278 15.4492 13.8178 15.6233L8.15076 17.0154L6.74194 17.7975C6.60211 18.1242 6.46207 18.4584 6.32034 18.7908C5.83146 19.9429 5.33901 21.1187 4.8577 22.3054C3.23251 26.3154 1.74946 30.4416 1.04967 34.1151C1.03853 34.1762 1.02549 34.2399 1.01435 34.3012C1.01281 34.3052 1.01217 34.3095 1.01246 34.3138C0.865266 35.1103 0.755082 35.8834 0.693473 36.6292C0.689688 36.6655 0.685904 36.6997 0.684012 36.7341C0.385636 40.3931 1.16764 43.3699 3.82021 44.9533C4.34419 45.2659 4.95359 45.4176 5.5683 45.3885C6.18301 45.3594 6.77424 45.151 7.26426 44.7905C9.07028 43.4629 11.16 41.3209 13.3054 39.0147C13.3651 38.9514 13.4248 38.8883 13.4845 38.8233C14.5872 37.532 15.9771 36.7805 17.8689 36.9913H34.13C36.0238 36.7799 37.4118 37.5314 38.5163 38.8233C40.7242 41.2018 42.8782 43.4269 44.7366 44.7905C45.7402 45.5255 47.1078 45.596 48.1787 44.9533C51.3974 43.0298 51.8618 39.0601 50.985 34.3046Z" fill="white"/>
<g opacity="0.3">
<path d="M48.1789 44.9521C47.1084 45.5962 45.7408 45.5247 44.7374 44.7905C42.878 43.4267 40.7239 41.201 38.5178 38.8219C37.4124 37.5318 36.0233 36.7807 34.1313 36.9926H17.8689C15.9764 36.7807 14.5886 37.5318 13.4847 38.8219C13.426 38.8868 13.3655 38.952 13.3047 39.0149C11.1599 41.3205 9.07004 43.4625 7.26486 44.7905C6.25934 45.5247 4.89405 45.5962 3.82124 44.9521C1.16866 43.3681 0.386241 40.3925 0.685247 36.7324C0.686123 36.6984 0.689072 36.6644 0.694078 36.6306C0.7027 36.5193 0.713423 36.4082 0.72646 36.295C1.01685 38.5375 1.95529 40.3398 3.82124 41.4516C4.89363 42.0956 6.26039 42.0244 7.26486 41.29C9.07004 39.962 11.1593 37.82 13.3047 35.5146C13.3655 35.4494 13.426 35.3865 13.4847 35.3214C14.5878 34.0313 15.9768 33.2802 17.8689 33.4894H34.1313C34.71 33.4243 35.243 33.4515 35.735 33.5543C35.7371 33.5566 35.7371 33.5543 35.7371 33.5543C36.836 32.5956 37.3192 31.0641 36.8642 29.6396C36.8432 29.5747 36.8207 29.5095 36.7969 29.4466C36.5803 28.8801 37.2595 28.3914 37.7461 28.767C37.7766 28.79 37.8047 28.8132 37.8329 28.8362C38.4051 29.2999 38.8405 29.9293 39.0659 30.6824C39.4024 31.8268 39.1421 33.0345 38.4448 33.9503C38.1328 34.3598 38.1748 34.9218 38.5113 35.3126L38.5182 35.3204C40.7244 37.6995 42.8784 39.9254 44.7378 41.289C45.7412 42.0234 47.1088 42.0946 48.1793 41.4506C50.0453 40.3365 50.9858 38.5345 51.2741 36.2897C51.6724 40.1499 50.9383 43.3031 48.1789 44.9521Z" fill="#0F227A"/>
</g>
<path d="M46.583 46C45.7797 45.9985 44.9991 45.7422 44.3606 45.2703C42.4392 43.8611 40.1935 41.533 38.0525 39.2272C38.0468 39.2211 38.0413 39.215 38.0359 39.2086C36.9477 37.9356 35.7296 37.4217 34.2009 37.591C34.1774 37.5936 34.1537 37.5949 34.1301 37.5949H17.8693C17.8457 37.5949 17.8221 37.5936 17.7987 37.591C16.2704 37.4219 15.0519 37.9356 13.9637 39.2086C13.9583 39.215 13.9528 39.2211 13.9471 39.2272C11.8068 41.533 9.56149 43.8609 7.63897 45.2703C6.4175 46.1659 4.79 46.2434 3.4922 45.4671C0.261794 43.5348 -0.714289 39.6658 0.508021 33.6406C1.51396 28.6858 3.85534 22.9828 6.16728 17.5667C6.21977 17.4431 6.31329 17.3401 6.43306 17.2737L7.61815 16.6155L7.87574 15.7043C7.96454 15.389 8.12285 15.096 8.33976 14.8455C8.55668 14.595 8.82706 14.3929 9.13232 14.2532C11.2981 13.2623 13.5131 12.5619 15.7138 12.1715C16.2808 12.0707 16.8663 12.1762 17.3579 12.4676L18.9451 13.4066C19.352 13.6474 19.8198 13.7747 20.2967 13.7747H31.7018C32.1787 13.7748 32.6464 13.6474 33.0533 13.4066L34.6406 12.4676C35.1322 12.1761 35.7177 12.0707 36.2847 12.1715C38.4865 12.5619 40.7004 13.2623 42.8662 14.2532C43.1715 14.3929 43.442 14.5949 43.6589 14.8454C43.8759 15.0959 44.0342 15.389 44.123 15.7043L44.3808 16.6155L45.5657 17.2737C45.686 17.3399 45.78 17.443 45.8329 17.5667C48.1459 22.9834 50.4863 28.6864 51.4916 33.6419C52.7139 39.667 51.7378 43.5346 48.5074 45.4683C47.9295 45.8155 47.2631 45.9996 46.583 46ZM38.9886 38.4296C41.0852 40.6879 43.2781 42.9622 45.1134 44.3085C45.9213 44.901 46.9962 44.9527 47.852 44.4408C54.2606 40.6066 48.5953 27.1984 44.7622 18.218L43.5389 17.5384C43.3959 17.4591 43.2913 17.3282 43.2479 17.1744L42.9224 16.0233C42.881 15.8758 42.807 15.7387 42.7057 15.6215C42.6044 15.5043 42.478 15.4097 42.3353 15.3443C40.2671 14.3983 38.1561 13.7303 36.061 13.3586C35.7955 13.3115 35.5215 13.3609 35.2914 13.4974L33.7043 14.4364C33.1016 14.793 32.409 14.9816 31.7027 14.9815H20.2975C19.5912 14.9816 18.8986 14.793 18.296 14.4364L16.7088 13.4974C16.4787 13.361 16.2047 13.3116 15.9392 13.3586C13.8443 13.7301 11.7338 14.3983 9.66494 15.3443C9.52227 15.4097 9.39594 15.5043 9.29464 15.6215C9.19333 15.7388 9.11945 15.8758 9.07807 16.0233L8.75236 17.1744C8.70888 17.3282 8.60425 17.4591 8.46134 17.5384L7.23798 18.218C3.40494 27.1984 -2.26042 40.6066 4.14825 44.4408C5.00426 44.9527 6.07917 44.9008 6.88683 44.3085C8.72271 42.962 10.9152 40.6879 13.0116 38.4296C14.3645 36.8517 15.9666 36.184 17.904 36.3882H34.0956C36.0341 36.1836 37.6355 36.8519 38.9886 38.4296Z" fill="#0F227A"/>
<path d="M29.5794 20.6344H22.4209C21.9141 20.6336 21.4129 20.5326 20.9479 20.3377C20.4829 20.1427 20.0639 19.8579 19.7166 19.5006L17.4114 17.1217C16.9779 16.6745 16.4286 16.3478 15.8206 16.1757C15.2125 16.0036 14.5679 15.9923 13.9539 16.143L8.28747 17.5341C8.21696 17.5515 8.1436 17.5552 8.07159 17.5452C7.99958 17.5351 7.93032 17.5114 7.86777 17.4754C7.80522 17.4394 7.7506 17.3919 7.70704 17.3355C7.66347 17.279 7.63181 17.2149 7.61386 17.1466C7.59591 17.0784 7.59203 17.0074 7.60243 16.9376C7.61283 16.8679 7.63731 16.8009 7.67448 16.7403C7.71165 16.6798 7.76077 16.6269 7.81905 16.5847C7.87732 16.5426 7.94361 16.5119 8.01412 16.4945L13.6816 15.1037C14.4876 14.9058 15.3337 14.9205 16.1318 15.1464C16.93 15.3722 17.651 15.8009 18.2201 16.3879L20.5244 18.7676C20.7681 19.0179 21.062 19.2174 21.3881 19.3539C21.7142 19.4904 22.0656 19.5611 22.4209 19.5615H29.5794C29.9346 19.5611 30.2861 19.4905 30.6121 19.354C30.9382 19.2175 31.232 19.0179 31.4756 18.7676L33.7802 16.3879C34.3492 15.8009 35.0703 15.3722 35.8685 15.1464C36.6666 14.9205 37.5127 14.9058 38.3187 15.1037L43.9851 16.4949C44.0556 16.5123 44.1219 16.543 44.1802 16.5851C44.2384 16.6273 44.2876 16.6802 44.3247 16.7407C44.3619 16.8013 44.3864 16.8683 44.3968 16.938C44.4072 17.0078 44.4033 17.0788 44.3854 17.147C44.3674 17.2153 44.3357 17.2795 44.2922 17.3359C44.2486 17.3923 44.194 17.4398 44.1314 17.4758C44.0689 17.5118 43.9996 17.5355 43.9276 17.5456C43.8556 17.5556 43.7823 17.5519 43.7118 17.5345L38.0453 16.1434C37.4313 15.9927 36.7867 16.004 36.1787 16.1761C35.5706 16.3482 35.0213 16.6749 34.5878 17.1221L32.2837 19.5004C31.9364 19.8577 31.5174 20.1426 31.0524 20.3376C30.5874 20.5326 30.0862 20.6336 29.5794 20.6344Z" fill="#0F227A"/>
<path d="M17.815 17.1571C17.7439 17.1571 17.674 17.1393 17.6119 17.1057C17.5499 17.072 17.4979 17.0234 17.4608 16.9647C17.4237 16.9059 17.4028 16.8389 17.4001 16.7701C17.3974 16.7013 17.413 16.633 17.4454 16.5717L18.8052 13.998C18.8554 13.903 18.9425 13.8312 19.0474 13.7984C19.1523 13.7656 19.2663 13.7744 19.3644 13.823C19.4625 13.8716 19.5367 13.9559 19.5706 14.0574C19.6045 14.159 19.5953 14.2694 19.5452 14.3644L18.1851 16.9379C18.1503 17.0039 18.0973 17.0593 18.032 17.098C17.9667 17.1367 17.8916 17.1572 17.815 17.1571Z" fill="#0F227A"/>
<path d="M34.1872 17.1571C34.1106 17.1571 34.0355 17.1367 33.9702 17.098C33.9048 17.0593 33.8518 17.0039 33.8169 16.9379L32.4569 14.3644C32.4067 14.2694 32.3976 14.159 32.4315 14.0574C32.4653 13.9559 32.5395 13.8716 32.6376 13.823C32.7358 13.7744 32.8498 13.7656 32.9547 13.7984C33.0596 13.8312 33.1467 13.903 33.1969 13.998L34.5569 16.5717C34.5892 16.633 34.6048 16.7013 34.6021 16.7701C34.5993 16.8389 34.5784 16.9058 34.5413 16.9646C34.5043 17.0233 34.4522 17.0718 34.3902 17.1055C34.3282 17.1393 34.2583 17.157 34.1872 17.1571Z" fill="#0F227A"/>
<path d="M19.4094 34.3014C21.6277 34.3014 23.426 32.5605 23.426 30.4131C23.426 28.2657 21.6277 26.5248 19.4094 26.5248C17.1911 26.5248 15.3928 28.2657 15.3928 30.4131C15.3928 32.5605 17.1911 34.3014 19.4094 34.3014Z" fill="#D0D4D8"/>
<path d="M19.4094 34.3523C17.1658 34.3523 15.3404 32.5852 15.3404 30.4131C15.3404 28.241 17.1658 26.4742 19.4094 26.4742C21.653 26.4742 23.4785 28.2412 23.4785 30.4131C23.4785 32.585 21.6532 34.3523 19.4094 34.3523ZM19.4094 26.5765C17.2225 26.5765 15.4455 28.2978 15.4455 30.4137C15.4455 32.5297 17.2236 34.2511 19.4094 34.2511C21.5951 34.2511 23.3734 32.5297 23.3734 30.4137C23.3734 28.2978 21.5951 26.5759 19.4094 26.5759V26.5765Z" fill="#0F227A"/>
<g opacity="0.3">
<path d="M22.6583 28.1282C22.1784 27.9394 21.6653 27.8426 21.1473 27.8433C18.9285 27.8433 17.1311 29.5851 17.1311 31.7311C17.1293 32.5523 17.3981 33.3526 17.8984 34.0158C17.1576 33.725 16.5234 33.2268 16.077 32.5849C15.6306 31.943 15.3924 31.1867 15.3928 30.4129C15.3928 28.2664 17.1918 26.525 19.409 26.525C20.043 26.5244 20.6681 26.6694 21.2329 26.9481C21.7978 27.2268 22.2863 27.6312 22.6583 28.1282Z" fill="#102770"/>
<path d="M18.0874 34.1585L17.8733 34.0746C17.1192 33.7808 16.4735 33.2748 16.0196 32.6221C15.5657 31.9693 15.3244 31.1998 15.3269 30.4129C15.3269 28.2349 17.1582 26.4611 19.4091 26.4611C20.053 26.4624 20.6875 26.6107 21.2611 26.8938C21.8347 27.177 22.3312 27.587 22.7104 28.0908L22.846 28.2715L22.6324 28.1873C22.1606 28.0009 21.6558 27.9055 21.1462 27.9063C18.9678 27.9063 17.1954 29.6221 17.1954 31.7309C17.1929 32.5387 17.4573 33.3262 17.9501 33.9781L18.0874 34.1585ZM19.4091 26.5883C17.2305 26.5883 15.4583 28.3041 15.4583 30.4129C15.456 31.1367 15.6669 31.8461 16.0662 32.458C16.4656 33.0699 17.0369 33.5589 17.7131 33.8676C17.2877 33.231 17.0626 32.4885 17.065 31.7303C17.065 29.5523 18.8963 27.7785 21.1472 27.7785C21.5955 27.7778 22.0409 27.8491 22.465 27.9896C22.0939 27.5524 21.6275 27.2 21.0992 26.9577C20.5708 26.7155 19.9937 26.5893 19.4091 26.5883Z" fill="#0F227A"/>
</g>
<path d="M19.4093 34.6832C16.9771 34.6832 14.9985 32.7676 14.9985 30.4131C14.9985 28.0586 16.9771 26.1432 19.4093 26.1432C21.8416 26.1432 23.8204 28.0586 23.8204 30.4131C23.8204 32.7676 21.8416 34.6832 19.4093 34.6832ZM19.4093 26.9075C17.4118 26.9075 15.7874 28.4804 15.7874 30.4137C15.7874 32.3471 17.4122 33.9201 19.4093 33.9201C21.4065 33.9201 23.0315 32.3471 23.0315 30.4137C23.0315 28.4804 21.4065 26.9069 19.4093 26.9069V26.9075Z" fill="#0F227A"/>
<path d="M34.8509 32.3726C35.9688 31.2905 35.9688 29.536 34.8509 28.4538C33.7331 27.3717 31.9207 27.3717 30.8029 28.4538C29.685 29.536 29.685 31.2905 30.8029 32.3726C31.9207 33.4547 33.7331 33.4547 34.8509 32.3726Z" fill="#5E6C7A"/>
<path d="M32.827 33.2478C31.2126 33.2478 29.899 31.9762 29.899 30.4131C29.899 28.85 31.2126 27.5786 32.827 27.5786C34.4415 27.5786 35.7551 28.8502 35.7551 30.4131C35.7551 31.976 34.4415 33.2478 32.827 33.2478ZM32.827 27.7058C31.2849 27.7058 30.0304 28.9205 30.0304 30.4131C30.0304 31.9058 31.2849 33.1204 32.827 33.1204C34.3692 33.1204 35.6236 31.906 35.6236 30.4131C35.6236 28.9202 34.3689 27.7058 32.827 27.7058Z" fill="#0F227A"/>
<path d="M34.8509 32.3726C35.9688 31.2905 35.9688 29.536 34.8509 28.4538C33.7331 27.3717 31.9207 27.3717 30.8029 28.4538C29.685 29.536 29.685 31.2905 30.8029 32.3726C31.9207 33.4547 33.7331 33.4547 34.8509 32.3726Z" fill="#D0D4D8"/>
<path d="M32.827 33.235C31.2197 33.235 29.912 31.9691 29.912 30.4131C29.912 28.8571 31.2197 27.5914 32.827 27.5914C34.4343 27.5914 35.742 28.8571 35.742 30.4131C35.742 31.9691 34.4343 33.235 32.827 33.235ZM32.827 27.6932C31.2777 27.6932 30.0171 28.9133 30.0171 30.4131C30.0171 31.9129 31.2777 33.1332 32.827 33.1332C34.3763 33.1332 35.6368 31.9129 35.6368 30.4131C35.6368 28.9133 34.3763 27.6932 32.827 27.6932Z" fill="#0F227A"/>
<path d="M32.827 33.5659C31.031 33.5659 29.5701 32.1517 29.5701 30.4131C29.5701 28.6746 31.031 27.2605 32.827 27.2605C34.6229 27.2605 36.0839 28.6748 36.0839 30.4131C36.0839 32.1514 34.6227 33.5659 32.827 33.5659ZM32.827 28.0242C32.3388 28.024 31.8616 28.164 31.4556 28.4265C31.0496 28.6889 30.7332 29.062 30.5463 29.4985C30.3593 29.9351 30.3103 30.4155 30.4055 30.879C30.5006 31.3425 30.7357 31.7682 31.0808 32.1024C31.4259 32.4366 31.8657 32.6642 32.3445 32.7565C32.8232 32.8487 33.3195 32.8014 33.7705 32.6206C34.2215 32.4397 34.607 32.1335 34.8782 31.7406C35.1494 31.3476 35.2941 30.8857 35.2941 30.4131C35.2933 29.7799 35.0331 29.1728 34.5707 28.7249C34.1082 28.2771 33.4811 28.0251 32.827 28.0242Z" fill="#0F227A"/>
<path d="M32.827 31.7315C33.5792 31.7315 34.1889 31.1412 34.1889 30.4131C34.1889 29.685 33.5792 29.0947 32.827 29.0947C32.0748 29.0947 31.4651 29.685 31.4651 30.4131C31.4651 31.1412 32.0748 31.7315 32.827 31.7315Z" fill="#0F227A"/>
<path d="M15.1382 24.5597C16.2561 23.4775 16.2561 21.7231 15.1382 20.6409C14.0204 19.5588 12.208 19.5588 11.0901 20.6409C9.9723 21.7231 9.9723 23.4775 11.0901 24.5597C12.208 25.6418 14.0204 25.6418 15.1382 24.5597Z" fill="#5E6C7A"/>
<path d="M13.1142 25.4348C11.4995 25.4348 10.186 24.1634 10.186 22.6003C10.186 21.0372 11.4995 19.765 13.1142 19.765C14.7289 19.765 16.0423 21.0366 16.0423 22.5995C16.0423 24.1624 14.7295 25.4348 13.1142 25.4348ZM13.1142 19.8931C11.5721 19.8931 10.3176 21.1075 10.3176 22.6003C10.3176 24.0932 11.5723 25.3076 13.1142 25.3076C14.6561 25.3076 15.9108 24.0932 15.9108 22.6003C15.9108 21.1075 14.6561 19.8931 13.1142 19.8931Z" fill="#0F227A"/>
<g opacity="0.3">
<path d="M18.6921 24.5243C18.5502 26.3195 17.0745 27.7897 15.2255 27.9776C14.6698 28.0351 14.1078 27.9757 13.578 27.8036C13.0481 27.6314 12.563 27.3506 12.1556 26.9802C11.8961 26.5918 12.148 26.3101 12.5324 26.3245C12.791 26.3626 13.0529 26.3753 13.3142 26.3624C15.2842 26.2686 16.8962 24.7136 17.0007 22.8063C17.0044 22.7396 17.0063 22.671 17.0063 22.604C17.0082 21.999 17.8178 21.7678 18.1405 22.2844C18.1616 22.317 18.1799 22.3475 18.1984 22.3782C18.5809 23.0297 18.7528 23.7773 18.6921 24.5243Z" fill="#0F227A"/>
</g>
<path d="M15.1382 24.5597C16.2561 23.4775 16.2561 21.7231 15.1382 20.6409C14.0204 19.5588 12.208 19.5588 11.0901 20.6409C9.9723 21.7231 9.9723 23.4775 11.0901 24.5597C12.208 25.6418 14.0204 25.6418 15.1382 24.5597Z" fill="#D0D4D8"/>
<path d="M13.1143 25.9123C11.2273 25.9123 9.69208 24.4264 9.69208 22.5995C9.69208 20.7726 11.2271 19.2867 13.1143 19.2867C15.0014 19.2867 16.5362 20.7726 16.5362 22.5995C16.5362 24.4264 15.001 25.9123 13.1143 25.9123ZM13.1143 20.3704C12.6588 20.3704 12.2136 20.5011 11.8349 20.746C11.4562 20.9909 11.161 21.339 10.9867 21.7463C10.8124 22.1536 10.7667 22.6018 10.8556 23.0343C10.9444 23.4667 11.1637 23.8639 11.4857 24.1757C11.8077 24.4874 12.218 24.6998 12.6647 24.7858C13.1114 24.8718 13.5744 24.8277 13.9952 24.659C14.416 24.4903 14.7756 24.2045 15.0286 23.838C15.2817 23.4714 15.4167 23.0404 15.4167 22.5995C15.4158 22.0087 15.1729 21.4423 14.7413 21.0246C14.3097 20.6069 13.7246 20.3719 13.1143 20.3712V20.3704Z" fill="#0F227A"/>
<path d="M13.114 23.9187C13.8662 23.9187 14.4759 23.3285 14.4759 22.6003C14.4759 21.8722 13.8662 21.2819 13.114 21.2819C12.3618 21.2819 11.7521 21.8722 11.7521 22.6003C11.7521 23.3285 12.3618 23.9187 13.114 23.9187Z" fill="#0F227A"/>
<path d="M39.0601 21.4179C39.935 21.4179 40.6443 20.7313 40.6443 19.8843C40.6443 19.0373 39.935 18.3507 39.0601 18.3507C38.1852 18.3507 37.4759 19.0373 37.4759 19.8843C37.4759 20.7313 38.1852 21.4179 39.0601 21.4179Z" fill="#E5C62C"/>
<path d="M22.186 29.7265V31.0999C22.186 31.1404 22.1778 31.1804 22.1618 31.2178C22.1458 31.2552 22.1223 31.2892 22.0927 31.3178C22.0632 31.3464 22.0281 31.3691 21.9895 31.3846C21.9508 31.4001 21.9094 31.4081 21.8676 31.4081H20.524V32.7088C20.524 32.7905 20.4905 32.8689 20.4308 32.9267C20.3711 32.9845 20.2901 33.017 20.2057 33.017H18.7878C18.7034 33.017 18.6224 32.9845 18.5627 32.9267C18.503 32.8689 18.4694 32.7905 18.4694 32.7088V31.4083H17.1266C17.0422 31.4083 16.9612 31.3758 16.9015 31.318C16.8418 31.2602 16.8083 31.1818 16.8083 31.1001V29.7267C16.8083 29.645 16.8418 29.5666 16.9015 29.5088C16.9612 29.451 17.0422 29.4185 17.1266 29.4185H18.4703V28.1178C18.4702 28.0362 18.5036 27.9579 18.5631 27.9001C18.6227 27.8423 18.7035 27.8097 18.7878 27.8094H20.205C20.2895 27.8094 20.3704 27.8419 20.4301 27.8997C20.4898 27.9575 20.5234 28.0359 20.5234 28.1176V29.4183H21.867C21.9089 29.4183 21.9503 29.4262 21.989 29.4416C22.0277 29.4571 22.0629 29.4798 22.0925 29.5084C22.1222 29.537 22.1457 29.571 22.1617 29.6084C22.1777 29.6459 22.186 29.686 22.186 29.7265Z" fill="#0F227A"/>
<path d="M42.3155 24.5693C43.1904 24.5693 43.8997 23.8827 43.8997 23.0357C43.8997 22.1888 43.1904 21.5022 42.3155 21.5022C41.4406 21.5022 40.7313 22.1888 40.7313 23.0357C40.7313 23.8827 41.4406 24.5693 42.3155 24.5693Z" fill="#E52C5C"/>
<path d="M35.8045 24.5693C36.6794 24.5693 37.3886 23.8827 37.3886 23.0357C37.3886 22.1888 36.6794 21.5022 35.8045 21.5022C34.9295 21.5022 34.2203 22.1888 34.2203 23.0357C34.2203 23.8827 34.9295 24.5693 35.8045 24.5693Z" fill="#5E7DEF"/>
<g opacity="0.3">
<path d="M41.5936 20.9615C41.5937 21.3238 41.4612 21.6744 41.2198 21.9512C40.9784 22.2281 40.6435 22.4132 40.2746 22.4739C39.9056 22.5347 39.5264 22.467 39.204 22.2829C38.8816 22.0989 38.637 21.8103 38.5134 21.4684C38.7546 21.5955 39.0259 21.6596 39.3005 21.6546C39.5752 21.6495 39.8437 21.5754 40.0798 21.4394C40.3159 21.3035 40.5114 21.1105 40.6471 20.8793C40.7828 20.6481 40.8541 20.3867 40.8539 20.1208C40.8537 19.9484 40.8238 19.7771 40.7654 19.6142C41.016 19.7457 41.2253 19.9403 41.3711 20.1775C41.5169 20.4146 41.5938 20.6855 41.5936 20.9615Z" fill="#0F227A"/>
<path d="M41.5936 27.2645C41.5937 27.6268 41.4612 27.9775 41.2198 28.2543C40.9784 28.5311 40.6435 28.7163 40.2746 28.777C39.9056 28.8377 39.5264 28.77 39.204 28.586C38.8816 28.4019 38.637 28.1134 38.5134 27.7714C38.7547 27.8984 39.0259 27.9625 39.3005 27.9573C39.5751 27.9522 39.8435 27.878 40.0796 27.7421C40.3156 27.6062 40.5111 27.4133 40.6469 27.1822C40.7826 26.951 40.854 26.6897 40.8539 26.4239C40.8539 26.2513 40.824 26.08 40.7654 25.917C41.016 26.0486 41.2253 26.2432 41.3711 26.4804C41.5169 26.7176 41.5938 26.9885 41.5936 27.2645Z" fill="#0F227A"/>
<path d="M44.8482 24.1137C44.8478 24.4758 44.7152 24.826 44.4737 25.1025C44.2323 25.379 43.8977 25.5639 43.529 25.6246C43.1603 25.6853 42.7813 25.6178 42.4591 25.434C42.1368 25.2503 41.8921 24.9622 41.7681 24.6206C42.0095 24.7476 42.2808 24.8117 42.5555 24.8066C42.8302 24.8015 43.0988 24.7274 43.3349 24.5915C43.5711 24.4556 43.7667 24.2626 43.9026 24.0315C44.0385 23.8004 44.11 23.539 44.1101 23.2731C44.1101 23.1005 44.0801 22.9292 44.0214 22.7662C44.2718 22.898 44.4807 23.0927 44.6263 23.3299C44.7718 23.5671 44.8485 23.8379 44.8482 24.1137Z" fill="#0F227A"/>
<path d="M38.3374 24.1137C38.3368 24.4757 38.2041 24.8259 37.9626 25.1023C37.7212 25.3787 37.3866 25.5635 37.0179 25.6242C36.6493 25.6848 36.2704 25.6174 35.9481 25.4337C35.6259 25.2501 35.3811 24.9621 35.2571 24.6206C35.4985 24.7476 35.7698 24.8117 36.0445 24.8066C36.3191 24.8015 36.5877 24.7274 36.8239 24.5915C37.0601 24.4556 37.2557 24.2626 37.3916 24.0315C37.5275 23.8004 37.599 23.539 37.5991 23.2731C37.5991 23.1005 37.5692 22.9292 37.5106 22.7662C37.7609 22.898 37.9699 23.0927 38.1154 23.3299C38.2609 23.5671 38.3376 23.8379 38.3374 24.1137Z" fill="#0F227A"/>
</g>
<path d="M39.0601 27.7209C39.935 27.7209 40.6443 27.0343 40.6443 26.1873C40.6443 25.3404 39.935 24.6538 39.0601 24.6538C38.1852 24.6538 37.4759 25.3404 37.4759 26.1873C37.4759 27.0343 38.1852 27.7209 39.0601 27.7209Z" fill="#55BC5C"/>
<g opacity="0.55">
<path d="M40.2059 18.8264C40.0691 18.7885 39.9275 18.7694 39.7853 18.7699C39.4753 18.7698 39.172 18.8578 38.9131 19.023C38.6543 19.1882 38.4512 19.4234 38.3291 19.6993C38.207 19.9752 38.1713 20.2797 38.2264 20.5751C38.2815 20.8705 38.4249 21.1437 38.6389 21.3609C38.4035 21.2983 38.1863 21.1838 38.0042 21.0265C37.8221 20.8691 37.68 20.6731 37.5891 20.4538C37.4982 20.2345 37.4609 19.9978 37.4801 19.7623C37.4993 19.5267 37.5745 19.2986 37.6999 19.0959C37.8252 18.8931 37.9973 18.7211 38.2027 18.5934C38.408 18.4657 38.6411 18.3856 38.8837 18.3595C39.1263 18.3335 39.3719 18.362 39.6012 18.443C39.8305 18.524 40.0374 18.6552 40.2056 18.8264H40.2059Z" fill="white"/>
</g>
<g opacity="0.55">
<path d="M43.4611 21.9777C43.3244 21.9396 43.1828 21.9205 43.0405 21.9211C42.7305 21.9209 42.4272 22.0089 42.1683 22.1741C41.9094 22.3393 41.7064 22.5744 41.5843 22.8503C41.4622 23.1262 41.4265 23.4308 41.4816 23.7261C41.5366 24.0215 41.6801 24.2947 41.8941 24.5119C41.6588 24.4493 41.4415 24.3348 41.2594 24.1774C41.0773 24.0201 40.9352 23.8241 40.8443 23.6048C40.7534 23.3855 40.7161 23.1488 40.7353 22.9132C40.7546 22.6776 40.8298 22.4495 40.9552 22.2467C41.0806 22.044 41.2527 21.872 41.4581 21.7443C41.6634 21.6166 41.8966 21.5366 42.1392 21.5105C42.3818 21.4845 42.6274 21.5131 42.8567 21.5941C43.086 21.6752 43.2929 21.8064 43.4611 21.9777Z" fill="white"/>
</g>
<g opacity="0.55">
<path d="M36.9509 21.9777C36.8142 21.9396 36.6726 21.9205 36.5303 21.9211C36.2202 21.9209 35.9169 22.0088 35.658 22.174C35.3991 22.3392 35.196 22.5743 35.0739 22.8502C34.9518 23.1261 34.916 23.4307 34.9711 23.7261C35.0262 24.0215 35.1697 24.2947 35.3837 24.5119C35.1483 24.4493 34.9311 24.3348 34.749 24.1774C34.5668 24.0201 34.4248 23.8241 34.3339 23.6048C34.243 23.3855 34.2057 23.1488 34.2249 22.9132C34.2441 22.6776 34.3194 22.4495 34.4447 22.2467C34.5701 22.044 34.7422 21.872 34.9476 21.7443C35.153 21.6166 35.3861 21.5366 35.6288 21.5105C35.8714 21.4845 36.1169 21.5131 36.3463 21.5941C36.5756 21.6752 36.7824 21.8064 36.9507 21.9777H36.9509Z" fill="white"/>
</g>
<g opacity="0.55">
<path d="M40.2058 25.1309C40.0691 25.0928 39.9275 25.0736 39.7853 25.0741C39.4752 25.074 39.1719 25.162 38.9131 25.3272C38.6542 25.4925 38.4512 25.7276 38.3291 26.0035C38.207 26.2794 38.1713 26.584 38.2264 26.8793C38.2814 27.1747 38.4249 27.448 38.6389 27.6651C38.4035 27.6026 38.1862 27.4881 38.004 27.3308C37.8219 27.1734 37.6798 26.9774 37.5888 26.7581C37.4979 26.5388 37.4606 26.3021 37.4798 26.0665C37.499 25.8309 37.5742 25.6028 37.6996 25.4C37.8249 25.1972 37.9971 25.0252 38.2025 24.8975C38.4079 24.7698 38.641 24.6898 38.8836 24.6637C39.1263 24.6376 39.3719 24.6663 39.6012 24.7473C39.8305 24.8284 40.0374 24.9596 40.2056 25.1309H40.2058Z" fill="white"/>
</g>
<path d="M39.0601 28.1718C38.6544 28.1718 38.2579 28.0553 37.9207 27.8372C37.5834 27.619 37.3206 27.309 37.1654 26.9462C37.0102 26.5834 36.9696 26.1842 37.0487 25.7991C37.1278 25.414 37.3232 25.0603 37.61 24.7827C37.8968 24.505 38.2623 24.316 38.6601 24.2394C39.0579 24.1628 39.4703 24.2022 39.845 24.3524C40.2197 24.5027 40.54 24.7572 40.7653 25.0837C40.9906 25.4102 41.1109 25.7941 41.1108 26.1867C41.1102 26.713 40.8939 27.2176 40.5094 27.5897C40.125 27.9619 39.6037 28.1712 39.0601 28.1718ZM39.0601 25.1046C38.839 25.1046 38.6229 25.1681 38.439 25.287C38.2552 25.4059 38.1119 25.5749 38.0273 25.7726C37.9427 25.9704 37.9206 26.1879 37.9637 26.3978C38.0069 26.6077 38.1133 26.8005 38.2697 26.9519C38.426 27.1032 38.6252 27.2063 38.842 27.248C39.0588 27.2898 39.2836 27.2683 39.4878 27.1864C39.6921 27.1045 39.8667 26.9659 39.9895 26.7879C40.1123 26.61 40.1779 26.4007 40.1779 26.1867C40.1774 25.8999 40.0594 25.625 39.8499 25.4223C39.6403 25.2196 39.3563 25.1056 39.0601 25.1052V25.1046Z" fill="#0F227A"/>
<path d="M39.0601 21.8696C38.6545 21.8696 38.258 21.7531 37.9207 21.535C37.5835 21.3168 37.3206 21.0068 37.1654 20.644C37.0102 20.2813 36.9696 19.8821 37.0487 19.497C37.1278 19.1119 37.3231 18.7582 37.6099 18.4805C37.8967 18.2029 38.2622 18.0138 38.66 17.9372C39.0578 17.8606 39.4701 17.8999 39.8449 18.0502C40.2196 18.2004 40.5399 18.4549 40.7652 18.7814C40.9906 19.1078 41.1108 19.4917 41.1108 19.8843C41.1102 20.4106 40.894 20.9153 40.5095 21.2874C40.125 21.6596 39.6038 21.869 39.0601 21.8696ZM39.0601 18.8022C38.839 18.8022 38.6229 18.8657 38.439 18.9846C38.2552 19.1035 38.1119 19.2725 38.0273 19.4702C37.9427 19.6679 37.9206 19.8855 37.9637 20.0954C38.0069 20.3053 38.1133 20.4981 38.2697 20.6495C38.426 20.8008 38.6252 20.9038 38.842 20.9456C39.0588 20.9874 39.2836 20.9659 39.4878 20.884C39.6921 20.8021 39.8667 20.6634 39.9895 20.4855C40.1123 20.3075 40.1779 20.0983 40.1779 19.8843C40.1775 19.5974 40.0597 19.3224 39.8501 19.1195C39.6405 18.9166 39.3564 18.8025 39.0601 18.8022Z" fill="#0F227A"/>
<path d="M42.3155 25.021C41.9099 25.021 41.5134 24.9045 41.1761 24.6864C40.8389 24.4683 40.576 24.1582 40.4208 23.7954C40.2656 23.4327 40.225 23.0335 40.3041 22.6484C40.3832 22.2633 40.5786 21.9096 40.8654 21.6319C41.1522 21.3543 41.5176 21.1652 41.9154 21.0886C42.3132 21.012 42.7256 21.0513 43.1003 21.2016C43.475 21.3518 43.7953 21.6063 44.0207 21.9328C44.246 22.2592 44.3663 22.6431 44.3663 23.0357C44.3657 23.5621 44.1494 24.0667 43.7649 24.4389C43.3805 24.811 42.8592 25.0204 42.3155 25.021ZM42.3155 21.9536C42.0944 21.9536 41.8783 22.0171 41.6945 22.136C41.5107 22.2549 41.3674 22.4239 41.2828 22.6216C41.1982 22.8193 41.176 23.0369 41.2192 23.2468C41.2623 23.4567 41.3688 23.6495 41.5251 23.8009C41.6814 23.9522 41.8806 24.0553 42.0974 24.097C42.3143 24.1388 42.539 24.1173 42.7433 24.0354C42.9475 23.9535 43.1221 23.8148 43.2449 23.6369C43.3677 23.4589 43.4333 23.2497 43.4333 23.0357C43.433 22.7488 43.3151 22.4738 43.1055 22.2709C42.896 22.0681 42.6118 21.954 42.3155 21.9536Z" fill="#0F227A"/>
<path d="M35.8047 25.021C35.399 25.021 35.0025 24.9046 34.6652 24.6865C34.328 24.4684 34.0651 24.1583 33.9098 23.7956C33.7546 23.4328 33.7139 23.0337 33.793 22.6485C33.8721 22.2634 34.0674 21.9097 34.3542 21.632C34.641 21.3543 35.0065 21.1652 35.4043 21.0886C35.8021 21.012 36.2145 21.0513 36.5892 21.2016C36.9639 21.3518 37.2842 21.6063 37.5096 21.9327C37.7349 22.2592 37.8552 22.6431 37.8552 23.0357C37.8546 23.562 37.6384 24.0666 37.254 24.4388C36.8695 24.811 36.3483 25.0203 35.8047 25.021ZM35.8047 21.9536C35.5836 21.9536 35.3675 22.0171 35.1836 22.136C34.9998 22.2549 34.8565 22.4239 34.7719 22.6216C34.6873 22.8193 34.6652 23.0369 34.7083 23.2468C34.7515 23.4567 34.8579 23.6495 35.0142 23.8009C35.1706 23.9522 35.3697 24.0553 35.5866 24.097C35.8034 24.1388 36.0282 24.1173 36.2324 24.0354C36.4367 23.9535 36.6112 23.8148 36.7341 23.6369C36.8569 23.4589 36.9225 23.2497 36.9225 23.0357C36.9221 22.7488 36.8042 22.4738 36.5946 22.271C36.3851 22.0681 36.101 21.954 35.8047 21.9536Z" fill="#0F227A"/>
<path d="M24.5652 24.2786C24.6979 23.7343 24.3497 23.189 23.7875 23.0606C23.2254 22.9321 22.6621 23.2692 22.5294 23.8134C22.3967 24.3576 22.7449 24.9029 23.307 25.0314C23.8692 25.1598 24.4325 24.8228 24.5652 24.2786Z" fill="#0F227A"/>
<path d="M29.1913 24.7642C29.5998 24.3688 29.5998 23.7277 29.1913 23.3323C28.7829 22.937 28.1207 22.937 27.7122 23.3324C27.3038 23.7277 27.3038 24.3688 27.7122 24.7642C28.1207 25.1596 28.7829 25.1596 29.1913 24.7642Z" fill="#0F227A"/>
<g opacity="0.3">
<path d="M25.2642 24.653C25.2647 24.8895 25.1795 25.1187 25.0234 25.3008C24.8674 25.4828 24.6504 25.6062 24.4102 25.6494C24.1699 25.6926 23.9216 25.6529 23.7085 25.5372C23.4953 25.4216 23.3308 25.2372 23.2435 25.0163C23.3426 25.0461 23.4458 25.0611 23.5496 25.0607C23.827 25.0607 24.0929 24.954 24.289 24.7642C24.4851 24.5743 24.5953 24.3169 24.5953 24.0484C24.5955 23.9241 24.5715 23.8008 24.5247 23.6851C24.7387 23.7485 24.9261 23.8767 25.0592 24.051C25.1924 24.2252 25.2642 24.4362 25.2642 24.653Z" fill="#0F227A"/>
<path d="M30.1664 24.653C30.1675 24.89 30.0827 25.1198 29.9266 25.3023C29.7705 25.4849 29.5532 25.6086 29.3126 25.6519C29.0719 25.6953 28.8232 25.6554 28.6098 25.5393C28.3964 25.4232 28.2318 25.2383 28.1449 25.0168C28.244 25.0466 28.3473 25.0615 28.4511 25.0611C28.7284 25.0611 28.9944 24.9545 29.1905 24.7646C29.3866 24.5748 29.4967 24.3173 29.4967 24.0489C29.4969 23.9245 29.473 23.8013 29.4261 23.6855C29.6402 23.7488 29.8278 23.8769 29.9611 24.0511C30.0943 24.2253 30.1663 24.4362 30.1664 24.653Z" fill="#0F227A"/>
</g>
</g>
<defs>
<clipPath id="clip0_42036_80">
<rect width="52" height="46" fill="white"/>
</clipPath>
</defs>
</svg>
